<svg xmlns="http://www.w3.org/2000/svg" viewBox="0 0 140 154" width="140" height="154" role="img" aria-label="PracticalDocs icon">
  <title>PracticalDocs icon</title>
  <mask id="gap" maskUnits="userSpaceOnUse" x="0" y="0" width="140" height="154">
    <rect width="140" height="154" fill="#fff"></rect>
    <path d="M30 8 H124 V132 H2 V36 Z" fill="#000"></path>
  </mask>
  <path d="M48 30 H138 V146 H24 V54 Z" fill="#201e1d" mask="url(#gap)"></path>
  <path d="M30 12 H120 V128 H6 V36 Z" fill="#201e1d"></path>
  <path d="M26 36 H40 V48 H30 V56 H26 Z M30 40 H36 V44 H30 Z" fill="#b06a45" fill-rule="evenodd"></path>
  <g fill="#f3f2f2">
    <rect x="44" y="36" width="56" height="6"></rect>
    <rect x="44" y="51" width="46" height="6"></rect>
    <rect x="26" y="66" width="74" height="6"></rect>
    <rect x="26" y="81" width="74" height="6"></rect>
    <rect x="26" y="96" width="44" height="6"></rect>
  </g>
  <g fill="#b06a45">
    <rect x="12" y="18" width="12" height="12"></rect>
    <rect x="114" y="6" width="12" height="12"></rect>
    <rect x="0" y="122" width="12" height="12"></rect>
    <rect x="114" y="122" width="12" height="12"></rect>
  </g>
</svg>
